HIERARCHY
ROOT Hips
{
	OFFSET 0.000000 0.000000 0.000000
	CHANNELS 6 Xposition Yposition Zposition Xrotation Yrotation Zrotation
	JOINT LeftUpLeg_virtual
	{
		OFFSET 0.000000 0.000000 0.000000
		CHANNELS 3 Xrotation Yrotation Zrotation
		JOINT LeftUpLeg
		{
			OFFSET 11.394100 -6.187798 -0.413800
			CHANNELS 3 Xrotation Yrotation Zrotation
			JOINT LeftLeg
			{
				OFFSET 0.430247 -32.302673 3.732800
				CHANNELS 3 Xrotation Yrotation Zrotation
				JOINT LeftFoot
				{
					OFFSET -0.430247 -48.264931 -6.423300
					CHANNELS 3 Xrotation Yrotation Zrotation
					JOINT LeftToeBase
					{
						OFFSET 4.230900 -16.068199 23.438400
						CHANNELS 3 Xrotation Yrotation Zrotation
						JOINT LeftToe_End
						{
							OFFSET 4.510700 0.695400 19.974600
							CHANNELS 3 Xrotation Yrotation Zrotation
							End Site
							{
								OFFSET 0 0 0
							}
						}
					}
				}
			}
		}
	}
	JOINT RightUpLeg_virtual
	{
		OFFSET 0.000000 0.000000 0.000000
		CHANNELS 3 Xrotation Yrotation Zrotation
		JOINT RightUpLeg
		{
			OFFSET -11.333700 -6.187798 -0.413800
			CHANNELS 3 Xrotation Yrotation Zrotation
			JOINT RightLeg
			{
				OFFSET -0.430392 -32.302628 3.733000
				CHANNELS 3 Xrotation Yrotation Zrotation
				JOINT RightFoot
				{
					OFFSET 0.430392 -48.264973 -6.423500
					CHANNELS 3 Xrotation Yrotation Zrotation
					JOINT RightToeBase
					{
						OFFSET -4.230900 -16.068199 23.438400
						CHANNELS 3 Xrotation Yrotation Zrotation
						JOINT RightToe_End
						{
							OFFSET -4.510700 0.695400 19.974600
							CHANNELS 3 Xrotation Yrotation Zrotation
							End Site
							{
								OFFSET 0 0 0
							}
						}
					}
				}
			}
		}
	}
	JOINT Spine_virtual
	{
		OFFSET 0.000000 0.000000 0.000000
		CHANNELS 3 Xrotation Yrotation Zrotation
		JOINT Spine
		{
			OFFSET -0.002400 12.777504 0.315300
			CHANNELS 3 Xrotation Yrotation Zrotation
			JOINT Spine1
			{
				OFFSET -0.002067 5.816869 0.032633
				CHANNELS 3 Xrotation Yrotation Zrotation
				JOINT Spine1_split
				{
					OFFSET -0.002067 5.816869 0.032633
					CHANNELS 3 Xrotation Yrotation Zrotation
					JOINT Spine2
					{
						OFFSET -0.002067 5.816869 0.032633
						CHANNELS 3 Xrotation Yrotation Zrotation
						JOINT Neck_virtual
						{
							OFFSET 0.000000 0.000000 0.000000
							CHANNELS 3 Xrotation Yrotation Zrotation
							JOINT Neck
							{
								OFFSET -0.003700 21.199493 -0.826900
								CHANNELS 3 Xrotation Yrotation Zrotation
								JOINT Head
								{
									OFFSET 0.000000 20.442200 4.834800
									CHANNELS 3 Xrotation Yrotation Zrotation
									JOINT HeadTop_End
									{
										OFFSET 0.000000 34.668396 4.968400
										CHANNELS 3 Xrotation Yrotation Zrotation
										End Site
										{
											OFFSET 0 0 0
										}
									}
								}
							}
						}
						JOINT LeftShoulder_virtual
						{
							OFFSET 0.000000 0.000000 0.000000
							CHANNELS 3 Xrotation Yrotation Zrotation
							JOINT LeftShoulder
							{
								OFFSET 3.288150 8.794197 -1.372250
								CHANNELS 3 Xrotation Yrotation Zrotation
								JOINT LeftShoulder_split
								{
									OFFSET 3.288150 8.794197 -1.372250
									CHANNELS 3 Xrotation Yrotation Zrotation
									JOINT LeftArm
									{
										OFFSET 11.953299 -2.279007 -0.146200
										CHANNELS 3 Xrotation Yrotation Zrotation
										JOINT LeftForeArm
										{
											OFFSET 18.448900 0.000000 0.000000
											CHANNELS 3 Xrotation Yrotation Zrotation
											JOINT LeftHand
											{
												OFFSET 29.527798 0.000000 0.000000
												CHANNELS 3 Xrotation Yrotation Zrotation
												End Site
												{
													OFFSET 0 0 0
												}
											}
										}
									}
								}
							}
						}
						JOINT RightShoulder_virtual
						{
							OFFSET 0.000000 0.000000 0.000000
							CHANNELS 3 Xrotation Yrotation Zrotation
							JOINT RightShoulder
							{
								OFFSET -3.249400 8.794197 -1.372250
								CHANNELS 3 Xrotation Yrotation Zrotation
								JOINT RightShoulder_split
								{
									OFFSET -3.249400 8.794197 -1.372250
									CHANNELS 3 Xrotation Yrotation Zrotation
									JOINT RightArm
									{
										OFFSET -11.953299 -2.279007 -0.146200
										CHANNELS 3 Xrotation Yrotation Zrotation
										JOINT RightForeArm
										{
											OFFSET -18.448900 0.000000 0.000000
											CHANNELS 3 Xrotation Yrotation Zrotation
											JOINT RightHand
											{
												OFFSET -29.527802 0.000000 0.000000
												CHANNELS 3 Xrotation Yrotation Zrotation
												End Site
												{
													OFFSET 0 0 0
												}
											}
										}
									}
								}
							}
						}
					}
				}
			}
		}
	}
}
MOTION
Frames: 5
Frame Time: 0.03333333
0.099013 101.416603 1.891914 0.000000 0.000000 0.000000 1.428671 0.654101 0.177049 -9.594938 -3.262072 10.732162 14.827132 1.651430 -1.382805 -5.532072 11.216218 -5.076447 1.051392 0.500859 -2.127777 0.000000 0.000000 0.000000 2.371253 -0.175039 0.150084 -11.882380 -2.484078 -10.542034 13.705146 1.145416 -1.019022 -2.903953 -11.158438 9.111346 -0.107640 -0.075753 -0.406696 0.000000 0.000000 0.000000 2.545510 -0.424971 -0.376865 2.962023 0.166443 1.674225 3.297459 0.042611 0.304830 0.941182 0.390385 0.129430 0.000000 0.000000 0.000000 2.831619 0.115072 0.057601 -2.859193 -0.289600 0.136725 -0.971003 -1.808754 1.893778 0.000000 0.000000 0.000000 2.690354 0.152385 0.245203 1.297684 9.502110 -13.273188 -0.683347 -2.340063 -0.705411 11.844024 -5.583199 -52.793210 -0.551821 -32.494143 0.854953 0.000000 0.000000 0.000000 2.676441 0.058582 0.287099 1.688610 -9.780006 11.451674 0.864377 1.995389 -1.808145 1.864760 17.789105 63.517652 2.175151 25.297347 0.306860 0.000000 0.000000 0.000000 
0.622914 101.235596 1.332909 0.000000 0.000000 0.000000 1.416858 0.318986 0.280399 -9.797665 -3.169258 10.435873 14.879070 1.681583 -1.460055 -6.095017 10.718526 -5.272804 0.845559 0.471480 -1.964557 0.000000 0.000000 0.000000 2.330094 -0.206027 0.250857 -12.020841 -2.657162 -10.788034 13.515180 1.099364 -1.029160 -3.132960 -11.162862 9.221508 -0.899622 -0.118570 -0.434263 0.000000 0.000000 0.000000 2.490779 -0.657974 -0.310463 2.979419 0.133002 1.721854 3.284598 0.014052 0.301346 1.049632 0.176076 0.035578 0.000000 0.000000 0.000000 2.886338 0.114291 0.037799 -2.829119 -0.243133 0.043096 -0.899148 -1.688328 1.809247 0.000000 0.000000 0.000000 2.749785 0.119988 0.238898 1.287498 9.299863 -13.222055 -0.720572 -2.141806 -0.652519 11.669066 -6.000747 -52.970040 -0.534237 -32.650005 0.870809 0.000000 0.000000 0.000000 2.718339 0.034249 0.299260 1.718101 -9.532952 11.550255 0.924978 2.068858 -1.879119 1.798371 17.772243 63.429160 2.199497 25.041295 0.355355 0.000000 0.000000 0.000000 
1.570684 100.947388 0.850498 0.000000 0.000000 0.000000 1.364400 -0.212191 0.305426 -10.495690 -2.970352 10.146532 15.984687 1.186790 -1.656813 -6.762151 9.362005 -5.626601 0.482772 0.390095 -1.585006 0.000000 0.000000 0.000000 2.177393 -0.403577 0.310923 -11.956158 -2.656901 -11.178107 13.345099 1.066550 -1.089703 -3.386042 -11.102583 9.460858 -1.240942 -0.140800 -0.470227 0.000000 0.000000 0.000000 2.445784 -1.014740 -0.233298 3.076278 0.012475 1.714674 3.208070 -0.038215 0.284188 1.067771 0.109282 -0.050888 0.000000 0.000000 0.000000 2.863073 0.080885 0.018183 -2.752199 -0.130140 -0.093941 -0.766821 -1.481443 1.727039 0.000000 0.000000 0.000000 2.744695 0.069968 0.228836 1.263842 8.870978 -13.177813 -0.620726 -1.869921 -0.534823 11.501394 -6.814050 -53.212843 -0.414954 -32.662135 0.877009 0.000000 0.000000 0.000000 2.708890 -0.017462 0.313426 1.752992 -8.958613 11.871822 0.873848 2.027089 -2.060983 1.625177 17.816743 63.048103 2.167101 24.392702 0.400502 0.000000 0.000000 0.000000 
2.787698 100.595352 0.612740 0.000000 0.000000 0.000000 1.347260 -0.800555 0.236423 -11.640989 -2.660389 9.943871 17.776192 0.489188 -1.914534 -7.555945 7.488592 -5.807364 0.337630 0.262473 -1.092424 0.000000 0.000000 0.000000 2.033402 -0.713427 0.253748 -11.800452 -2.534164 -11.658457 13.184994 1.034056 -1.141778 -3.556639 -10.936565 9.897216 -1.162891 -0.114348 -0.664369 0.000000 0.000000 0.000000 2.417335 -1.450390 -0.218383 3.252406 -0.186066 1.682960 3.078946 -0.101086 0.254675 0.979879 0.178380 -0.055718 0.000000 0.000000 0.000000 2.774709 0.020097 0.000247 -2.630422 0.024599 -0.244666 -0.608462 -1.256393 1.696419 0.000000 0.000000 0.000000 2.677770 0.011000 0.217014 1.227664 8.288076 -13.107664 -0.507498 -1.491490 -0.410806 11.326265 -7.863233 -53.531980 -0.230580 -32.522619 0.864861 0.000000 0.000000 0.000000 2.647549 -0.088347 0.318075 1.781639 -8.124799 12.334514 0.742671 1.909806 -2.265676 1.313578 17.875816 62.448713 2.085416 23.521432 0.444198 0.000000 0.000000 0.000000 
4.140616 100.216766 0.471989 0.000000 0.000000 0.000000 1.393220 -1.377461 0.056579 -13.018671 -2.330455 9.770429 19.675113 0.002695 -2.155921 -8.525328 5.621577 -5.452638 0.470767 0.133662 -0.626202 0.000000 0.000000 0.000000 1.999971 -1.165769 0.062369 -11.732171 -2.362097 -12.205045 13.052649 0.982286 -1.144848 -3.530751 -10.655373 10.724212 -1.191109 -0.010361 -1.121408 0.000000 0.000000 0.000000 2.446975 -1.950709 -0.306585 3.494802 -0.431719 1.670923 2.924969 -0.171107 0.217458 0.897541 0.289069 -0.033496 0.000000 0.000000 0.000000 2.636275 -0.059378 -0.011036 -2.484677 0.186473 -0.387842 -0.466945 -1.086657 1.761135 0.000000 0.000000 0.000000 2.563145 -0.051688 0.208371 1.179940 7.626460 -12.992037 -0.472061 -1.129789 -0.369703 11.099698 -9.008212 -53.939841 -0.055480 -32.317481 0.824449 0.000000 0.000000 0.000000 2.535932 -0.172741 0.300276 1.788554 -7.123115 12.837474 0.649091 1.765795 -2.431294 0.881343 17.912846 61.725635 1.963386 22.575568 0.485170 0.000000 0.000000 0.000000 
